<!DOCTYPE svg PUBLIC "-//W3C//DTD SVG 1.1//EN" "http://www.w3.org/Graphics/SVG/1.1/DTD/svg11.dtd">

<!-- Uploaded to: SVG Repo, www.svgrepo.com, Transformed by: SVG Repo Mixer Tools -->
<svg width="800px" height="800px" viewBox="0 0 400 400" fill="none" xmlns="http://www.w3.org/2000/svg" stroke="#F5F9E9" transform="rotate(-45)">

<g id="SVGRepo_bgCarrier" stroke-width="0"/>

<g id="SVGRepo_tracerCarrier" stroke-linecap="round" stroke-linejoin="round"/>

<g id="SVGRepo_iconCarrier"> <path d="M159.73 240.328C174.67 235.296 182.748 253.848 165.099 252.11C158.466 251.457 155.606 244.093 160.115 242.398" stroke="#F5F9E9" stroke-opacity="0.2" stroke-width="10" stroke-linecap="round" stroke-linejoin="round"/> <path d="M195.37 308.03C191.625 312.638 188.285 318.516 182.94 319.968C144.961 330.286 81.9032 287.11 83.0145 253.908C83.2465 246.977 97.5157 263.653 115.958 271.842C128.824 277.555 142.833 280.736 144.961 279.05C149.024 275.831 144.961 263.632 134.948 259.159C118.7 251.899 64.9901 244.609 89.3735 147.985C90.2275 144.6 97.9632 159.339 105.946 168.503C109.647 172.753 153.844 224.938 163.95 214.018C170.916 206.491 156.877 192.383 152.557 188.649C145.529 182.574 120.305 165.739 115.958 161.042C100.486 144.323 93.7905 138.067 103.184 117.767C105.475 112.816 109.054 106.077 113.542 102.844C117.193 100.214 129.613 138.938 132.186 143.881C140.24 159.352 155.554 180.441 173.273 180.441C176.732 180.441 183.068 182.149 184.667 177.83C190.803 161.253 144.579 130.648 140.472 110.678C138.236 99.801 131.457 75.5214 144.961 69.2683C145.888 68.8388 149.906 67.1097 150.831 67.7759C152.018 68.6314 151.521 71.7543 151.521 72.9987C151.521 88.3858 150.967 106.386 160.498 119.259C164.406 124.537 170.683 131.085 176.035 134.554C180.227 137.272 187.774 133.961 187.774 128.585C187.774 106.997 164.987 91.6494 169.13 67.0296C172.606 46.3691 189.204 58.0231 197.096 49.496C197.916 48.609 202.563 41.4443 203.656 42.0345C204.173 42.3139 203.02 45.7249 202.966 46.1383C202.704 48.1169 203.093 50.0161 204.001 51.7339C209.242 61.6441 220.53 65.3818 217.122 81.9526C216.409 85.4156 210.561 94.9696 210.561 96.5021C210.561 100.701 218.503 94.2628 222.646 86.0558C226.789 77.8487 226.012 53.3351 229.551 53.9726C246.563 57.0361 239.878 107.929 236.111 118.513C233.599 125.568 229.73 132.147 226.789 139.032C225.501 142.046 218.724 155.402 222.991 156.939C232.455 160.347 241.38 123.236 243.017 119.259C245.314 113.672 250.138 91.3686 250.958 86.0558C251.208 84.4346 251.995 76.6564 253.374 77.8487C258.486 82.2667 279.096 110.794 280.929 117.23C287.268 139.49 262.128 143.134 250.958 161.788C247.16 168.13 241.077 172.659 238.182 179.695C237.007 182.554 235.242 186.225 239.564 185.291C245.509 184.006 260.222 163.629 275.3 156.939C290.379 150.248 310.848 147.545 312.069 147.985C314.578 148.888 313.105 200.5 288.511 227.475C282.839 233.696 266.178 243.485 258.899 244.609C256.499 244.979 256.27 253.104 257.172 255.055C260.204 261.607 277.198 252.239 284.448 249.832C291.698 247.425 315.835 226.268 316.394 227.475C318.724 232.511 314.052 250.716 312.069 255.428C298.094 288.649 266.564 265.276 254.41 271.842C243.337 277.825 254.293 291.969 260.97 296.092C266.861 299.729 284.313 292.225 284.793 292.361C297.913 296.092 285.619 305.038 269.469 317.357C253.318 329.675 234.395 322.955 217.122 317.357C211.952 315.681 208.881 312.007 204.346 309.149C202.8 308.175 198.758 305.045 200.549 305.045C201.34 305.045 201.625 345.076 200.894 349.813C200.564 351.953 198.11 361.469 198.822 358.394" stroke="#F5F9E9" stroke-opacity="0.2" stroke-width="5" stroke-linecap="round" stroke-linejoin="round"/> <path d="M216.111 112.308C228.133 104.997 218.3 129.62 215.267 113.166" stroke="#F5F9E9" stroke-opacity="0.2" stroke-width="5" stroke-linecap="round" stroke-linejoin="round"/> <path d="M262.277 212.081C281.64 212.634 258.753 229.343 260.786 212.359" stroke="#F5F9E9" stroke-opacity="0.2" stroke-width="5" stroke-linecap="round" stroke-linejoin="round"/> <path d="M198.679 69.5654C197.547 126.801 207.841 178.089 204.64 235.384C204.13 244.507 201.053 286.409 199.743 294.681" stroke="#F5F9E9" stroke-opacity="0.2" stroke-width="5" stroke-linecap="round" stroke-linejoin="round"/> </g>

</svg>